<?xml version="1.0" encoding="utf-8"?>
<svg viewBox="0 0 20 20" fill="currentColor" xmlns="http://www.w3.org/2000/svg">
  <path id="plus-icon" d="M 9.546 0.5 C 2.233 0.5 -2.338 8.417 1.319 14.75 C 4.975 21.083 14.117 21.083 17.773 14.75 C 18.607 13.306 19.046 11.668 19.046 10 C 19.04 4.756 14.79 0.506 9.546 0.5 Z M 13.788 11 L 5.304 11 C 4.534 11 4.053 10.167 4.438 9.5 C 4.617 9.191 4.947 9 5.304 9 L 13.788 9 C 14.558 9 15.039 9.833 14.654 10.5 C 14.475 10.809 14.145 11 13.788 11 Z" transform="matrix(1, 0, 0, 1, 8.881784197001252e-16, 0)"/>
</svg>